HIERARCHY
ROOT root
{
	OFFSET 0.000000 0.000000 0.000000
	CHANNELS 6 Xposition Yposition Zposition Zrotation Yrotation Xrotation
	JOINT lhip
	{
		OFFSET 0.058581 -0.082280 -0.017664
		CHANNELS 3 Zrotation Yrotation Xrotation
		JOINT lknee
		{
			OFFSET 0.043451 -0.386469 0.008037
			CHANNELS 3 Zrotation Yrotation Xrotation
			JOINT lankle
			{
				OFFSET -0.014790 -0.426874 -0.037428
				CHANNELS 3 Zrotation Yrotation Xrotation
				JOINT ltoe
				{
					OFFSET 0.041054 -0.060286 0.122042
					CHANNELS 3 Zrotation Yrotation Xrotation
					End Site
					{
						OFFSET 0.000000 0.000000 0.000000
					}
				}
			}
		}
	}
	JOINT rhip
	{
		OFFSET -0.060310 -0.090513 -0.013543
		CHANNELS 3 Zrotation Yrotation Xrotation
		JOINT rknee
		{
			OFFSET -0.043257 -0.383688 -0.004843
			CHANNELS 3 Zrotation Yrotation Xrotation
			JOINT rankle
			{
				OFFSET 0.019056 -0.420046 -0.034562
				CHANNELS 3 Zrotation Yrotation Xrotation
				JOINT rtoe
				{
					OFFSET -0.034840 -0.062106 0.130323
					CHANNELS 3 Zrotation Yrotation Xrotation
					End Site
					{
						OFFSET 0.000000 0.000000 0.000000
					}
				}
			}
		}
	}
	JOINT lowerback
	{
		OFFSET 0.004439 0.124404 -0.038385
		CHANNELS 3 Zrotation Yrotation Xrotation
		JOINT upperback
		{
			OFFSET 0.004488 0.137956 0.026820
			CHANNELS 3 Zrotation Yrotation Xrotation
			JOINT chest
			{
				OFFSET -0.002265 0.056032 0.002855
				CHANNELS 3 Zrotation Yrotation Xrotation
				JOINT lowerneck
				{
					OFFSET -0.013390 0.211636 -0.033468
					CHANNELS 3 Zrotation Yrotation Xrotation
					JOINT upperneck
					{
						OFFSET 0.010113 0.088937 0.050410
						CHANNELS 3 Zrotation Yrotation Xrotation
						End Site
						{
							OFFSET 0.000000 0.000000 0.000000
						}
					}
				}
				JOINT lclavicle
				{
					OFFSET 0.071702 0.114000 -0.018898
					CHANNELS 3 Zrotation Yrotation Xrotation
					JOINT lshoulder
					{
						OFFSET 0.122921 0.045205 -0.019046
						CHANNELS 3 Zrotation Yrotation Xrotation
						JOINT lelbow
						{
							OFFSET 0.255332 -0.015649 -0.022946
							CHANNELS 3 Zrotation Yrotation Xrotation
							JOINT lwrist
							{
								OFFSET 0.265709 0.012698 -0.007375
								CHANNELS 3 Zrotation Yrotation Xrotation
								End Site
								{
									OFFSET 0.000000 0.000000 0.000000
								}
							}
						}
					}
				}
				JOINT rclavicle
				{
					OFFSET -0.082954 0.112472 -0.023707
					CHANNELS 3 Zrotation Yrotation Xrotation
					JOINT rshoulder
					{
						OFFSET -0.113228 0.046853 -0.008472
						CHANNELS 3 Zrotation Yrotation Xrotation
						JOINT relbow
						{
							OFFSET -0.260127 -0.014369 -0.031269
							CHANNELS 3 Zrotation Yrotation Xrotation
							JOINT rwrist
							{
								OFFSET -0.269108 0.006794 -0.006027
								CHANNELS 3 Zrotation Yrotation Xrotation
								End Site
								{
									OFFSET 0.000000 0.000000 0.000000
								}
							}
						}
					}
				}
			}
		}
	}
}
MOTION
Frames: 8
Frame Time: 0.033333
0.048289 0.872859 0.951501 -11.402072 2.326310 97.002548 16.145393 9.454106 -24.983004 -6.435584 5.412931 27.825480 3.446509 7.375772 -12.702071 0.000000 -0.000000 0.000000 -12.698923 -7.971971 -30.455699 2.696705 -11.782775 27.101108 5.586151 -1.270540 -9.099605 0.000000 -0.000000 0.000000 -1.141976 0.963391 29.115627 0.816090 -0.266156 -2.680852 -0.745711 -0.977470 -2.835261 -4.396266 -1.798271 -11.517728 -4.737147 -20.139127 14.114134 -27.447096 -5.979580 2.772607 -34.988401 -13.958964 4.454472 13.648736 -43.335509 9.481396 -27.298211 -10.269255 1.068417 33.437630 10.082165 3.822770 47.123710 11.539325 9.074242 -21.456797 35.479753 -24.162637 9.501703 11.954041 -19.842567 
0.033378 0.879512 0.949521 -11.061407 1.977410 97.845662 17.742262 8.550894 -25.871833 -7.354881 6.295699 28.185367 -0.785562 7.950635 -17.851850 0.000000 -0.000000 0.000000 -12.640105 -6.606606 -32.687787 2.798616 -10.994741 30.660220 8.060056 -0.929125 -11.871500 0.000000 -0.000000 0.000000 -2.080355 1.132502 27.025463 1.727785 -0.663907 -1.985620 -0.119112 -0.774465 -0.788352 -4.201941 -2.284690 -13.890590 -3.478500 -20.604500 12.777131 -27.919293 -6.842826 2.569048 -38.131537 -14.670562 6.828157 13.452861 -43.306683 -4.301267 -8.598699 -9.243242 -0.747032 33.443751 10.775109 3.043247 46.007808 11.735005 10.223377 -21.424252 36.049733 -26.561539 6.600762 10.804628 -18.721679 
0.021523 0.880945 0.947632 -10.604572 1.179868 97.703149 17.891422 8.049290 -25.207266 -7.844828 5.990056 27.282475 -1.000225 8.323071 -17.397172 0.000000 -0.000000 0.000000 -13.024597 -6.570017 -33.326261 2.058199 -10.140149 33.773835 8.409258 -4.043503 -9.841126 0.000000 -0.000000 0.000000 -2.562986 0.588076 26.081529 2.113507 -1.108097 -1.134564 0.092860 -0.671289 -0.153008 -4.595015 -3.998725 -13.985447 -1.901109 -19.351310 10.952028 -29.143674 -7.339637 3.497622 -37.771559 -15.186115 9.288497 9.849521 -43.626531 -6.729955 5.977909 -10.546476 -11.151959 33.956791 11.607573 3.321180 44.395977 11.957057 11.411824 -20.546660 35.581490 -27.264564 3.854828 10.838916 -20.003337 
0.008578 0.873778 0.945766 -10.208353 -0.034657 96.707774 16.688335 8.980812 -22.971459 -7.415961 4.562680 25.669598 -1.223267 7.165768 -17.289224 0.000000 -0.000000 0.000000 -13.517015 -8.246452 -32.957555 1.264743 -10.647686 36.788202 7.614961 -4.028674 -10.971920 0.000000 -0.000000 0.000000 -1.403182 -0.921579 27.927718 1.305435 -1.498905 -1.669036 -0.414386 -0.529882 -1.912825 -4.873307 -4.632649 -13.573787 -1.532063 -19.214524 10.212119 -30.227685 -7.175528 3.412552 -39.218568 -13.811983 10.293780 6.417649 -42.787984 -1.599704 5.869151 -11.959475 -10.141405 34.031765 11.900630 3.970105 44.008884 11.235420 10.845067 -19.354067 35.181613 -26.363382 3.665146 11.198572 -18.881227 
0.003672 0.873912 0.944926 -9.976465 -0.327285 96.679321 16.659691 9.076288 -22.799943 -7.435803 4.415659 25.346201 -1.411102 6.962723 -17.072448 0.000000 -0.000000 0.000000 -13.612702 -8.313847 -33.274456 1.176486 -10.816544 37.739014 7.508734 -3.991045 -11.640064 0.000000 -0.000000 0.000000 -1.285816 -1.159172 28.134763 1.318834 -1.558077 -1.949996 -0.430831 -0.531639 -1.941835 -4.746825 -4.887575 -13.782516 -1.472249 -19.316984 10.108554 -30.360761 -7.398833 3.565422 -39.990400 -13.778882 10.777697 5.571533 -42.256352 -0.087599 5.524464 -12.241482 -9.589374 33.812307 12.036768 4.104468 44.050934 11.295893 10.635045 -19.081042 34.717786 -26.133524 3.801370 11.121794 -18.951929 
-0.005445 0.874517 0.943726 -9.536226 -0.750384 96.909993 16.585553 9.445287 -22.746384 -7.314380 4.089197 24.666516 -1.668290 6.686342 -16.344642 0.000000 -0.000000 0.000000 -13.587360 -8.471867 -34.064634 0.961386 -11.045813 39.367611 7.369341 -3.741708 -12.680951 0.000000 -0.000000 0.000000 -0.946648 -1.548876 28.209619 1.397512 -1.566397 -2.470432 -0.426883 -0.553830 -2.050804 -4.587231 -5.516950 -14.062224 -1.374030 -19.992359 10.072903 -30.816125 -7.962856 3.824645 -41.602702 -13.857518 11.859646 3.566401 -40.029873 3.223045 5.521613 -12.904611 -7.616585 33.553485 12.302203 4.234355 43.690608 11.347646 10.047556 -17.834517 33.348106 -25.207440 3.265162 11.345800 -19.111675 
-0.013087 0.874143 0.942835 -9.354453 -1.234943 96.765829 16.523284 9.455988 -22.177143 -7.191142 4.061779 24.096749 -1.847584 6.312385 -16.069693 0.000000 -0.000000 0.000000 -13.761368 -8.582903 -34.261638 0.917377 -11.238633 40.494382 7.098280 -3.624961 -13.536004 0.000000 -0.000000 0.000000 -0.597368 -1.783301 27.983176 1.366064 -1.556375 -2.135846 -0.561734 -0.593225 -2.099907 -4.354184 -6.377507 -14.176844 -1.111695 -20.913828 9.714465 -31.334686 -8.693343 4.068596 -42.990381 -14.153746 12.966906 1.910580 -38.183299 6.006235 3.754285 -13.123507 -6.562884 33.620742 12.803253 4.439494 43.021985 11.711452 9.251672 -17.073144 31.465922 -24.779651 3.965558 11.318972 -18.399248 
-0.019651 0.873847 0.942142 -9.019325 -1.591376 96.739699 16.528626 9.226919 -21.790937 -7.128859 3.978986 23.409959 -1.833264 6.135369 -15.824399 0.000000 -0.000000 0.000000 -13.879307 -8.627890 -34.458172 1.090381 -11.327980 41.352287 6.765786 -3.994437 -14.237900 0.000000 -0.000000 0.000000 -0.193528 -2.067684 27.761318 1.439586 -1.634496 -1.951009 -0.601705 -0.766593 -2.343340 -4.041682 -7.160444 -14.238913 -1.244015 -21.314304 9.524783 -31.658820 -9.241127 4.588930 -44.755015 -14.016019 14.068076 0.897649 -37.592268 8.977118 0.648153 -13.231935 -6.083919 33.113548 13.461399 4.831672 43.031206 12.160331 8.623159 -16.628302 29.080828 -24.635104 4.442135 11.634690 -17.818859 
